<?xml version="1.0" encoding="UTF-8" standalone="no"?>
<!-- Created with Inkscape (http://www.inkscape.org/) -->

<svg
   version="1.1"
   id="svg1"
   width="133.33333"
   height="133.33333"
   viewBox="0 0 133.33333 133.33333"
   sodipodi:docname="fire icon.svg"
   inkscape:version="1.4.3 (0d15f75, 2025-12-25)"
   xmlns:inkscape="http://www.inkscape.org/namespaces/inkscape"
   xmlns:sodipodi="http://sodipodi.sourceforge.net/DTD/sodipodi-0.dtd"
   xmlns="http://www.w3.org/2000/svg"
   xmlns:svg="http://www.w3.org/2000/svg">
  <defs
     id="defs1" />
  <sodipodi:namedview
     id="namedview1"
     pagecolor="#ffffff"
     bordercolor="#999999"
     borderopacity="1"
     inkscape:showpageshadow="2"
     inkscape:pageopacity="0"
     inkscape:pagecheckerboard="0"
     inkscape:deskcolor="#d1d1d1"
     showgrid="false"
     inkscape:zoom="3.7725001"
     inkscape:cx="66.534126"
     inkscape:cy="66.666664"
     inkscape:window-width="1366"
     inkscape:window-height="705"
     inkscape:window-x="-8"
     inkscape:window-y="-8"
     inkscape:window-maximized="1"
     inkscape:current-layer="g1" />
  <g
     inkscape:groupmode="layer"
     inkscape:label="Image"
     id="g1">
    <path
       style="fill:#ff2a2a"
       d="m 91.005234,131.72302 c -3.28715,-2.40362 -1.46196,-6.55854 4.03193,-9.17839 5.675106,-2.70627 11.678916,-10.77554 15.441036,-20.75312 2.30805,-6.121221 2.73835,-9.642417 2.3047,-18.859769 -0.4671,-9.928322 -1.14298,-12.490402 -5.45184,-20.666666 C 104.62581,57.131741 99.213494,49.264223 95.303694,44.781701 88.233514,36.675872 65.140084,14.958378 63.57229,14.9409 c -0.45174,-0.005 -2.184472,3.740843 -3.850514,8.324176 -3.778742,10.395431 -8.963491,18.520782 -21.054185,32.995358 -12.991642,15.553159 -15.464783,20.817251 -15.975835,34.00464 -0.382218,9.862876 -0.106313,11.192846 3.661424,17.649506 4.446068,7.61908 15.024633,14.98141 21.559411,15.00465 1.935425,0.007 4.915965,1.14374 6.623423,2.52636 7.398046,5.99057 -5.85917,9.31131 -16.991718,4.25618 -6.64257,-3.0163 -15.401101,-10.70312 -19.201049,-16.85156 -4.00798,-6.48505 -5.378975,-12.08213 -5.396232,-22.030038 -0.02599,-14.978801 3.954246,-22.64351 25.327234,-48.772507 9.136796,-11.169955 14.225118,-20.981413 15.620363,-30.119664 1.142779,-7.4847067 2.72529,-10.3295915 5.745993,-10.3295915 5.388107,0 36.527779,27.8559485 47.717895,42.6859735 16.1787,21.441284 19.67031,45.096716 9.77697,66.238307 -6.62937,14.16664 -20.433176,25.36612 -26.130236,21.20033 z M 46.900787,109.01746 c -7.412091,-5.22808 -9.493402,-20.920799 -4.173817,-31.469866 3.994041,-7.920432 6.657636,-8.152536 13.127919,-1.143958 4.994094,5.409577 5.385922,5.585276 7.569402,3.394193 1.93723,-1.943976 2.302678,-4.976681 2.302678,-19.108963 0,-14.488811 0.317828,-16.998855 2.311784,-18.257282 3.418563,-2.157528 17.161841,11.818061 22.754161,23.138787 3.65697,7.402936 4.26739,10.073069 4.26739,18.666666 0,8.475596 -0.61924,11.266516 -4,18.028043 -3.28008,6.56015 -4.59665,8 -7.31508,8 -4.54791,0 -4.89426,-3.36641 -1.13495,-11.031301 4.6213,-9.422389 4.31627,-21.391454 -0.78073,-30.635371 -2.12284,-3.85 -4.36436,-7 -4.98115,-7 -0.61678,0 -1.1346,3.15 -1.15071,7 -0.0335,8.008125 -3.772168,17.419671 -7.769707,19.559089 -4.177323,2.235636 -10.169588,1.707145 -13.898168,-1.225757 -1.864565,-1.466666 -3.74548,-2.666666 -4.179812,-2.666666 -0.434331,0 -0.789694,2.953965 -0.789694,6.564366 0,5.10851 0.761812,7.469728 3.434965,10.64658 1.889231,2.24524 3.233102,5.14127 2.986379,6.43565 -0.583901,3.06331 -4.998955,3.63226 -8.58086,1.10579 z"
       id="path1" />
  </g>
</svg>
