<?xml version="1.0" encoding="UTF-8" standalone="no"?>
<!-- Created with Inkscape (http://www.inkscape.org/) -->

<svg
   version="1.1"
   id="svg1"
   width="133.33333"
   height="133.33333"
   viewBox="0 0 133.33333 133.33333"
   sodipodi:docname="icons8-map-pinpoint-100.png"
   xmlns:inkscape="http://www.inkscape.org/namespaces/inkscape"
   xmlns:sodipodi="http://sodipodi.sourceforge.net/DTD/sodipodi-0.dtd"
   xmlns="http://www.w3.org/2000/svg"
   xmlns:svg="http://www.w3.org/2000/svg">
  <defs
     id="defs1" />
  <sodipodi:namedview
     id="namedview1"
     pagecolor="#ffffff"
     bordercolor="#999999"
     borderopacity="1"
     inkscape:showpageshadow="2"
     inkscape:pageopacity="0"
     inkscape:pagecheckerboard="0"
     inkscape:deskcolor="#d1d1d1"
     inkscape:zoom="3.7725001"
     inkscape:cx="44.797878"
     inkscape:cy="66.666664"
     inkscape:window-width="1366"
     inkscape:window-height="705"
     inkscape:window-x="-8"
     inkscape:window-y="-8"
     inkscape:window-maximized="1"
     inkscape:current-layer="g1" />
  <g
     inkscape:groupmode="layer"
     inkscape:label="Image"
     id="g1">
    <path
       style="fill:#0000ff"
       d="m 10.696234,108.94323 0.37997,-13.458356 7.88596,-3.205377 c 4.33728,-1.762957 8.1487,-3.468122 8.46983,-3.789254 0.32114,-0.321132 -3.37154,-5.272452 -8.20594,-11.002933 C 7.8886939,64.048513 7.8198939,62.401588 18.595884,62.401588 c 6.23287,0 8.60901,0.556795 9.9576,2.333334 2.65995,3.504049 2.28328,4.133913 -2.74258,4.586179 l -4.59863,0.41382 7.23475,8.666667 c 3.97911,4.766666 7.2485,9.708029 7.2653,10.980806 0.0199,1.504723 -2.76761,3.726645 -7.96945,6.352526 l -8,4.038384 v 7.314136 7.31414 h 27.12668 c 24.18268,0 27.34416,0.25323 29.13053,2.33334 4.97339,5.79115 5.65203,5.66666 -30.89183,5.66666 h -34.792 z m 65.29218,-1.79293 C 60.273944,89.57406 57.134774,83.788321 57.134774,72.401588 c 0,-9.747903 3.03448,-16.827751 10.11582,-23.601564 6.75227,-6.459025 13.31885,-9.068066 22.78279,-9.052076 24.695026,0.04172 40.985336,25.996813 29.890156,47.623529 -2.31091,4.504447 -27.876426,34.702303 -29.573336,34.931883 -0.3993,0.054 -6.8621,-6.76486 -14.36179,-15.15306 z m 23.42113,-26.77805 c 7.998926,-9.205957 -1.66655,-22.920429 -13.35418,-18.948444 -4.94274,1.679764 -7.64582,5.859497 -7.64582,11.822599 0,6.936553 6.41691,12.420885 13.25957,11.332531 2.75158,-0.437652 5.99907,-2.202566 7.74043,-4.206686 z M 29.163564,58.2896 c -10.4151,-12.071103 -12.08657,-14.653117 -13.50238,-20.857915 -1.45964,-6.396898 0.42502,-13.648943 4.94225,-19.017359 4.74397,-5.637895 9.86827,-8.012736 17.28942,-8.012736 16.15991,0 27.50604,16.475056 21.37873,31.042824 -1.66706,3.963458 -18.65908,25.128849 -20.88363,26.012803 -0.53837,0.213929 -4.68934,-3.911498 -9.22439,-9.167617 z m 14.57931,-19.888011 c 1.46667,-1.466666 2.66667,-3.866666 2.66667,-5.333333 0,-3.527857 -4.5998,-8 -8.22835,-8 -6.71195,0 -10.18301,8.458834 -5.565,13.561679 2.89597,3.200016 7.79894,3.099395 11.12668,-0.228346 z"
       id="path1" />
  </g>
</svg>
