<?xml version="1.0" encoding="UTF-8" standalone="no"?>
<!-- Created with Inkscape (http://www.inkscape.org/) -->

<svg
   version="1.1"
   id="svg1"
   width="133.33333"
   height="133.33333"
   viewBox="0 0 133.33333 133.33333"
   sodipodi:docname="time icon.svg"
   inkscape:version="1.4.3 (0d15f75, 2025-12-25)"
   xmlns:inkscape="http://www.inkscape.org/namespaces/inkscape"
   xmlns:sodipodi="http://sodipodi.sourceforge.net/DTD/sodipodi-0.dtd"
   xmlns="http://www.w3.org/2000/svg"
   xmlns:svg="http://www.w3.org/2000/svg">
  <defs
     id="defs1" />
  <sodipodi:namedview
     id="namedview1"
     pagecolor="#ffffff"
     bordercolor="#999999"
     borderopacity="1"
     inkscape:showpageshadow="2"
     inkscape:pageopacity="0"
     inkscape:pagecheckerboard="0"
     inkscape:deskcolor="#d1d1d1"
     inkscape:zoom="3.7725001"
     inkscape:cx="66.534126"
     inkscape:cy="66.666664"
     inkscape:window-width="1366"
     inkscape:window-height="705"
     inkscape:window-x="-8"
     inkscape:window-y="-8"
     inkscape:window-maximized="1"
     inkscape:current-layer="g1" />
  <g
     inkscape:groupmode="layer"
     inkscape:label="Image"
     id="g1">
    <path
       style="fill:#008000"
       d="m 9.5999992,130.11106 c -1.142054,-1.14205 -1.6,-9.55116 -1.6,-29.38024 0,-27.367075 0.03966,-27.759019 2.6666658,-26.353089 2.522757,1.350139 2.666667,2.791765 2.666667,26.713579 v 25.28642 H 69.333331 125.33332 V 85.044398 43.711066 h -22.66666 c -21.777779,0 -22.666659,-0.104575 -22.666659,-2.666667 0,-2.562091 0.88888,-2.666666 22.666659,-2.666666 h 22.66666 V 29.0444 19.711067 h -6.66666 c -6.4127,0 -6.66667,0.142222 -6.66667,3.733333 0,4.999892 -2.23089,6.933333 -8,6.933333 -5.769097,0 -7.999999,-1.933441 -7.999999,-6.933333 v -3.733333 h -11.0126 c -9.56859,0 -11.23097,-0.349662 -12.67796,-2.666667 -1.62152,-2.596462 -1.3316,-2.666666 11.0126,-2.666666 h 12.67796 V 10.6444 c 0,-4.9998924 2.230902,-6.9333333 7.999999,-6.9333333 5.76911,0 8,1.9334409 8,6.9333333 0,3.659771 0.15238,3.733334 7.73333,3.733334 4.25334,0 8.45334,0.72 9.33334,1.6 2.30001,2.300011 2.30001,111.833316 0,114.133326 -2.30166,2.30166 -117.165004,2.30166 -119.4666608,0 z M 106.66666,17.0444 c 0,-7.1111114 -0.2963,-8.0000004 -2.66667,-8.0000004 -2.37037,0 -2.66666,0.888889 -2.66666,8.0000004 0,7.111111 0.29629,8 2.66666,8 2.37037,0 2.66667,-0.888889 2.66667,-8 z M 29.333331,99.711066 c 0,-15.111113 0.148148,-16.000002 2.666667,-16.000002 2.074074,0 2.666666,0.888889 2.666666,4 0,3.911111 0.148148,4 6.666667,4 h 6.666666 v -4.524015 c 0,-2.895322 0.75928,-4.815377 2.10905,-5.333333 3.196891,-1.226762 3.224283,-1.188327 3.224283,4.524015 v 5.333333 h 6.666671 6.66666 v -9.333333 -9.333333 h 9.33334 9.33333 v -6.666666 -6.666667 h -4.80932 c -3.83768,0 -4.64581,-0.426097 -4,-2.109049 0.44513,-1.159978 0.80932,-2.359978 0.80932,-2.666667 0,-0.306689 7.2,-0.557617 16,-0.557617 h 15.999989 v 30.666666 30.666672 h -39.999989 -40 z m 18.666666,4.000004 v -6.666674 h -6.666666 -6.666667 v 6.666674 6.66666 h 6.666667 6.666666 z m 18.666664,0 v -6.666674 h -6.66666 -6.666671 v 6.666674 6.66666 h 6.666671 6.66666 z m 18.66667,0 v -6.666674 h -6.66667 -6.66666 v 6.666674 6.66666 h 6.66666 6.66667 z m 18.666659,0 v -6.666674 h -6.666657 -6.666672 v 6.666674 6.66666 h 6.666672 6.666657 z M 85.333331,85.044398 v -6.666667 h -6.66667 -6.66666 v 6.666667 6.666666 h 6.66666 6.66667 z m 18.666659,0 v -6.666667 h -6.666657 -6.666672 v 6.666667 6.666666 h 6.666672 6.666657 z m 0,-18.666666 v -6.666667 h -6.666657 -6.666672 v 6.666667 6.666666 h 6.666672 6.666657 z M 27.999998,77.210849 C 16.578914,73.450174 9.1377122,67.237876 3.8442613,57.044399 -0.86857569,47.968998 -0.64900069,33.377175 4.3333323,24.543129 6.3499992,20.967431 7.9999992,17.817431 7.9999992,17.54313 c 0,-0.274301 -1.5,-0.49873 -3.3333329,-0.49873 -2.444445,0 -3.333333,-0.711111 -3.333333,-2.666666 0,-2.393163 0.888888,-2.666667 8.6666649,-2.666667 h 8.6666668 v 8.666667 c 0,7.777777 -0.273505,8.666666 -2.666667,8.666666 -2.113576,0 -2.672816,-0.898772 -2.696314,-4.333333 l -0.02965,-4.333333 -2.554828,3.325343 c -5.7498537,7.483965 -6.8360647,22.818952 -2.2385078,31.60297 2.5819848,4.933101 9.6830478,12.05172 14.7715808,14.808104 5.649474,3.060237 22.574133,3.025941 28.27289,-0.05729 5.362502,-2.901309 11.919312,-9.458114 14.820622,-14.820619 3.11683,-5.760851 3.11683,-22.622831 0,-28.383681 C 63.444481,21.490054 56.887681,14.933249 51.525171,12.03194 47.592123,9.9040186 32.770674,9.0923606 24.666665,10.561103 c -5.039127,0.913273 -2.843559,-3.4457314 2.666666,-5.294307 10.771203,-3.6135341 26.51596,0.3123377 35.791,8.924296 11.10551,10.311571 14.40973,30.010873 7.29974,43.519973 -4.18306,7.947868 -8.98536,12.650355 -17.051525,16.697121 -6.409013,3.215379 -19.670399,4.680238 -25.372548,2.802663 z m 12.809669,-30.264736 -6.24047,-4.764954 0.382067,-12.235046 c 0.306555,-9.8169 0.777349,-12.235046 2.382067,-12.235046 1.581413,0 2.074586,2.232462 2.356372,10.666666 l 0.356373,10.666667 5.520784,4.78674 c 3.282763,2.846286 5.133303,5.4137 4.564938,6.333333 -1.444969,2.33801 -2.540524,1.959782 -9.322131,-3.21836 z"
       id="path1" />
  </g>
</svg>
